<svg xmlns="http://www.w3.org/2000/svg" viewBox="0 0 230 248">
<path fill="#36a" d="M0 235.75L0 223.5L5.76 219.85C17.46 212.42 28 208.18 41.5 205.52C58.03 202.25 83.71 205.22 96.86 211.93C101.9 214.5 118.51 219.39 128 221.11C140.08 223.29 165.54 222.77 176.5 220.13C198.64 214.63 212.86 207.18 230 195.56C230 198.12 230 201.36 230 221.94L230 248L115 248L0 248zM0 156.12L0 110.16C7.67 110.16 13.21 110.24 20.99 110.24C20.99 122.11 20.99 132.81 20.99 144.59L32.77 127.71L44.3 110.24C53.96 110.24 59.4 110.24 71.19 110.24C70.85 110.79 64.59 119.25 58.49 127.5C52.39 135.75 47.09 143 46.71 143.63C46.34 144.26 49.79 153.03 54.39 163.13C59 173.23 62.7 181.55 62.63 181.61C62.56 181.67 57.3 181.99 50.95 182.31L39.41 182.9L36.08 173.93C34.22 168.89 33.48 166.9 32.54 164.82C31.32 166.04 29.34 168.2 25.9 172.49C24.03 174.83 22.68 176.23 20.91 178.44C20.81 180.14 20.93 181.16 21 183.65C21.05 185.46 21 187.03 20.99 188.86C20 189.44 19.48 189.81 19 190.06C15.97 191.59 5.42 197.67 2.75 199.43L0 201.23zM152 156.17L151.91 110.24C160.94 110.24 169.71 110.24 178.97 110.24C178.92 111.1 190.21 163.55 190.51 163.84C191.19 164.52 191.56 162.99 196 141C198.31 129.72 200.63 118.36 201.17 115.75L202.26 110.24C211.63 110.24 220.68 110.24 230 110.24C230 131.41 230 152.57 230 173.73L223.25 178.23C217 182.37 215.65 183.09 211.03 185.43C211.03 169.41 211.09 152.06 211.09 136C210.72 136 208.45 148.18 206.05 163.06C203.54 178.53 204.09 175.91 202.27 190.04C194.16 193.86 189.51 195.42 180.76 197.21C179.81 191.67 178.51 182.83 176.13 167.81C173.75 152.79 171.44 139.37 170.98 138C170.51 136.57 170.12 149.34 170.08 167.75C170 197.75 170 195.24 170 199.06C162.23 200.18 157.96 200.76 152 201.23L152 156.17zM79.49 184.52C78.79 181.93 76.89 179.42 76.88 155.1L76.88 110.24C83.93 110.24 90.13 110.24 97.08 110.24L97.08 164.35C97.08 176.43 100.57 182.24 110.39 182.24C120.22 182.24 123 176.23 123 164.35L123 110.24C129.72 110.24 136.25 110.24 142.95 110.24L142.81 145.25L142.55 176.89C142.48 185.03 134.18 196.21 126.95 200.25C108.71 197.08 95.18 189.04 79.49 184.52zM0 71.5L5.77 67.8C20.27 58.45 36.64 53.19 53.99 52.29C69.63 51.48 83.9 54.31 101.5 61.72C113.8 66.9 135.11 70.96 150 70.96C159.65 70.96 176.3 68.47 186.5 65.51C196.93 62.47 213.18 54.97 221.63 49.29C224.86 47.12 228.36 44.52 230 43.17C230 54.17 230 59.57 230 72.66L221.64 78.38C212.34 84.74 203.49 88.92 191.27 93.07C175.95 98.27 168.1 99.44 148.5 99.43C127.56 99.43 119.03 97.84 100.54 90.54C94.47 88.15 87.03 85.49 84 84.65C58.69 77.57 29.84 81.81 7.56 95.89C3.98 98.15 5.19 97.37 0 100.63C0 89.63 0 83.53 0 71.5zM0 0L115.03 0L230 0C230 7.98 230 15.16 230 22.85L223 27.81C208.89 37.79 187.75 45.72 169.7 48.61C157.34 50.58 133.54 50 122 47.49C117.87 46.58 108.62 43.63 101.43 40.93C81.13 33.29 74.58 31.86 59.5 31.76C45.34 31.66 33.87 33.77 21.67 38.7C15.44 41.22 4.94 47.12 0 50.73C0 30.45 0 28.5 0 -0z"/>
</svg>
